<?xml version="1.0" encoding="UTF-8"?>
<svg version="1.1" xmlns="http://www.w3.org/2000/svg" width="256" height="249">
<path d="M0 0 C84.48 0 168.96 0 256 0 C256 82.17 256 164.34 256 249 C171.52 249 87.04 249 0 249 C0 166.83 0 84.66 0 0 Z " fill="#6AAF62" transform="translate(0,0)"/>
<path d="M0 0 C15.45126576 13.5169444 28.72252405 32.52989052 30.46972656 53.51513672 C30.63221665 57.07068626 30.66434949 60.62154181 30.65332031 64.18041992 C30.65235243 66.37098769 30.69401275 68.55798558 30.73828125 70.74804688 C30.91701571 91.75568766 22.17342498 110.28492535 8.15234375 125.703125 C7.55164063 126.39664063 6.9509375 127.09015625 6.33203125 127.8046875 C-9.04994938 144.51844134 -30.81885946 151.70050711 -52.84765625 153.703125 C-52.84765625 142.153125 -52.84765625 130.603125 -52.84765625 118.703125 C-49.87765625 118.373125 -46.90765625 118.043125 -43.84765625 117.703125 C-41.06802131 116.79724979 -38.55401864 115.89021888 -35.91015625 114.703125 C-35.21849365 114.39262207 -34.52683105 114.08211914 -33.81420898 113.76220703 C-18.8843994 106.70422538 -10.09266463 93.27703715 -4.61035156 78.17163086 C-2.23136301 71.28211473 -1.52292738 64.80773419 -1.09765625 57.578125 C-1.02933594 56.67191406 -0.96101562 55.76570313 -0.890625 54.83203125 C-0.84035156 53.96191406 -0.79007813 53.09179688 -0.73828125 52.1953125 C-0.6614209 51.00977783 -0.6614209 51.00977783 -0.58300781 49.80029297 C-0.68282606 47.61406472 -0.68282606 47.61406472 -2.19433594 45.91064453 C-3.85315641 44.42565638 -3.85315641 44.42565638 -6.41015625 44.890625 C-8.99206897 45.54939533 -8.99206897 45.54939533 -10.84765625 47.703125 C-11.05948216 49.82006053 -11.05948216 49.82006053 -10.90234375 52.25390625 C-10.87487061 53.17405518 -10.84739746 54.0942041 -10.8190918 55.04223633 C-10.7713562 56.51406372 -10.7713562 56.51406372 -10.72265625 58.015625 C-10.58018224 67.06016727 -11.14012827 74.33679542 -14.84765625 82.703125 C-15.19828125 83.50492187 -15.54890625 84.30671875 -15.91015625 85.1328125 C-21.03794001 95.42398963 -29.28067506 103.97685235 -40.1328125 107.88671875 C-48.93286386 110.703125 -48.93286386 110.703125 -52.84765625 110.703125 C-52.84765625 106.743125 -52.84765625 102.783125 -52.84765625 98.703125 C-51.19765625 98.31125 -49.54765625 97.919375 -47.84765625 97.515625 C-39.56204052 95.23654818 -33.84746851 91.70286216 -28.84765625 84.703125 C-27.78265475 82.73696839 -26.77932451 80.73585574 -25.84765625 78.703125 C-25.31140625 77.671875 -24.77515625 76.640625 -24.22265625 75.578125 C-22.43046593 71.83081797 -21.72848981 68.70455263 -21.6706543 64.56811523 C-21.65781906 63.76305038 -21.64498383 62.95798553 -21.63175964 62.12852478 C-21.62437271 61.26497879 -21.61698578 60.4014328 -21.609375 59.51171875 C-21.59726738 58.16099022 -21.59726738 58.16099022 -21.58491516 56.78297424 C-21.5710959 54.87576203 -21.56036411 52.96852532 -21.55249023 51.0612793 C-21.54100818 49.12663436 -21.52061671 47.19202015 -21.4909668 45.25756836 C-21.27362818 31.06742076 -21.30663147 19.39449747 -31.71484375 8.640625 C-39.83648095 1.26272747 -49.64400585 -2.11711965 -60.62109375 -1.84765625 C-70.19686068 -0.21305197 -80.18574484 5.73584179 -85.9296875 13.52734375 C-86.50074219 14.47222656 -87.07179687 15.41710937 -87.66015625 16.390625 C-88.24410156 17.34324219 -88.82804687 18.29585937 -89.4296875 19.27734375 C-91.30696841 22.48889043 -91.9758433 24.21202951 -92.00878906 27.90234375 C-92.01839661 28.77084961 -92.02800415 29.63935547 -92.03790283 30.53417969 C-92.04427765 31.94812012 -92.04427765 31.94812012 -92.05078125 33.390625 C-92.05933136 34.84903809 -92.05933136 34.84903809 -92.0680542 36.33691406 C-92.07751614 38.40151885 -92.0840429 40.46613883 -92.08789062 42.53076172 C-92.09753184 45.66271167 -92.12851697 48.79398723 -92.16015625 51.92578125 C-92.16669288 53.93489195 -92.17194075 55.94400734 -92.17578125 57.953125 C-92.18812805 58.87955811 -92.20047485 59.80599121 -92.2131958 60.76049805 C-92.17862571 71.05542384 -89.30801701 80.571497 -82.84765625 88.703125 C-77.79182505 93.15038393 -72.17218653 95.59494824 -65.84765625 97.703125 C-64.19765625 98.363125 -62.54765625 99.023125 -60.84765625 99.703125 C-60.84765625 103.333125 -60.84765625 106.963125 -60.84765625 110.703125 C-74.59930763 108.68082333 -86.07624709 102.45925754 -94.66015625 91.359375 C-102.11012562 79.88642217 -103.92559187 67.10805103 -103.84765625 53.703125 C-103.51765625 53.373125 -103.18765625 53.043125 -102.84765625 52.703125 C-103.1349568 50.36367764 -103.46702404 48.0292107 -103.84765625 45.703125 C-107.94308406 44.56108548 -107.94308406 44.56108548 -111.78515625 45.828125 C-113.09191374 47.65624395 -113.09191374 47.65624395 -112.4296875 49.765625 C-111.93998369 52.23715027 -111.75392458 54.32176859 -111.70703125 56.8203125 C-111.3508621 74.15022471 -107.02261334 90.79003657 -94.890625 103.859375 C-85.21605314 112.59053736 -74.51752553 116.3995124 -61.84765625 118.703125 C-61.84765625 130.253125 -61.84765625 141.803125 -61.84765625 153.703125 C-88.51811149 150.3693181 -109.46635552 141.38976908 -126.68359375 120.47265625 C-141.82218045 100.02528915 -147.7585013 75.82534562 -144.234375 50.66796875 C-140.65169608 29.68825997 -128.93474814 10.51844392 -111.84765625 -2.296875 C-76.94800967 -26.33115264 -33.38900282 -26.93104754 0 0 Z " fill="#72C06B" transform="translate(186.84765625,58.296875)"/>
<path d="M0 0 C1.1240625 0.38542969 2.248125 0.77085938 3.40625 1.16796875 C29.55828982 10.6083663 48.53210695 28.82099468 60.4375 53.6875 C70.35862346 75.16389976 71.17359715 101.50028388 63.05078125 123.73535156 C53.77046625 147.48853876 36.96034638 168.14469321 13.32421875 178.6953125 C2.07266314 183.46128088 -9.71068784 187.55857356 -22 188 C-23.71703125 188.09474609 -23.71703125 188.09474609 -25.46875 188.19140625 C-51.76721146 189.00665856 -77.53341625 179.51904282 -96.76538086 161.44726562 C-113.68797203 144.64345998 -125.94749033 120.42762747 -126.24169922 96.38256836 C-126.26804471 85.84514714 -126.22255568 76.11760877 -123 66 C-122.80132324 65.36835937 -122.60264648 64.73671875 -122.39794922 64.0859375 C-116.58531931 46.04283762 -106.05483686 29.72486365 -91 18 C-90.20335937 17.36707031 -89.40671875 16.73414062 -88.5859375 16.08203125 C-63.93494571 -2.71525895 -29.77898397 -10.88350962 0 0 Z M-96 34 C-112.84191663 53.81234268 -119.01424295 76.23580771 -117 102 C-114.94153714 120.46102453 -106.12084617 137.19317147 -94 151 C-93.33484375 151.76054687 -92.6696875 152.52109375 -91.984375 153.3046875 C-76.65838998 169.70916776 -55.85565713 176.81443429 -34 179 C-34 167.45 -34 155.9 -34 144 C-38.62 143.01 -43.24 142.02 -48 141 C-63.34606884 134.8371652 -72.38560002 124.76489205 -78.8125 109.75 C-81.85952776 102.22082561 -83.30405195 95.44362216 -83.5625 87.375 C-83.74390631 81.16742296 -83.74390631 81.16742296 -84.59375 75.03125 C-85 73 -85 73 -83.9375 71.125 C-81.09278149 69.47322796 -79.09807413 70.24269299 -76 71 C-75.61936779 73.3260857 -75.28730055 75.66055264 -75 78 C-75.33 78.33 -75.66 78.66 -76 79 C-76.09520424 95.37512943 -73.0714424 110.06166208 -61.7109375 122.5078125 C-53.31040811 130.58832172 -44.382934 134.18532936 -33 136 C-33 132.37 -33 128.74 -33 125 C-34.299375 124.608125 -35.59875 124.21625 -36.9375 123.8125 C-47.90514337 120.1335897 -55.62543922 114.3526883 -61 104 C-63.64469581 97.19250562 -64.47701903 90.79039513 -64.50390625 83.53125 C-64.51389145 82.57029419 -64.52387665 81.60933838 -64.53416443 80.6192627 C-64.54924407 78.60250103 -64.5563934 76.58566563 -64.5559082 74.56884766 C-64.56248523 71.50687467 -64.61711728 68.44812229 -64.67382812 65.38671875 C-64.83559861 46.46497719 -64.83559861 46.46497719 -58 39 C-57.21625 38.0925 -56.4325 37.185 -55.625 36.25 C-46.83482742 28.71556636 -39.1392365 23.14694169 -27.1171875 23.62109375 C-15.70942036 25.00775216 -6.84909632 29.98652854 0.375 38.875 C5.50044661 45.55906196 6.45713656 53.59170685 6.3984375 61.75 C6.40130768 62.6481543 6.40417786 63.54630859 6.40713501 64.47167969 C6.40916283 66.35742835 6.40372347 68.24319866 6.39111328 70.12890625 C6.37504113 72.99267224 6.39100584 75.85502718 6.41015625 78.71875 C6.40817359 80.56250307 6.40432945 82.40625528 6.3984375 84.25 C6.40451019 85.09401367 6.41058289 85.93802734 6.4168396 86.80761719 C6.33042457 94.21998336 4.93169527 101.24635552 0 107 C-0.680625 108.175625 -0.680625 108.175625 -1.375 109.375 C-5.85395567 116.61023609 -10.264756 120.43260412 -18.515625 122.6875 C-20.66647464 123.17448482 -22.83248082 123.59359015 -25 124 C-25 127.96 -25 131.92 -25 136 C-11.7726655 134.13460667 -1.87965767 129.38067389 6.71875 118.90625 C12.75013405 110.41307654 17.2845746 100.33643211 16.9921875 89.8046875 C16.97542969 88.84175781 16.95867187 87.87882812 16.94140625 86.88671875 C16.89695913 84.87091091 16.84481461 82.85525877 16.78515625 80.83984375 C16.77097656 79.87949219 16.75679687 78.91914062 16.7421875 77.9296875 C16.7201123 77.05554199 16.69803711 76.18139648 16.67529297 75.28076172 C17 73 17 73 18.35595703 71.18017578 C20 70 20 70 22.5625 70.1875 C25 71 25 71 27 73 C27.82697133 94.56486766 22.26485981 113.68955528 7.55371094 129.83081055 C2.23703651 135.22768566 -4.05045562 138.13438541 -11 141 C-11.77601563 141.36867187 -12.55203125 141.73734375 -13.3515625 142.1171875 C-16 143 -16 143 -25 144 C-25 155.55 -25 167.1 -25 179 C-12.00782307 177.58644956 -12.00782307 177.58644956 0.25 174.3125 C1.37438477 173.92167236 1.37438477 173.92167236 2.52148438 173.52294922 C22.93998033 166.13110315 39.91105013 150.67773013 49.83203125 131.44921875 C51.28768388 128.32186772 52.67950708 125.18650094 54 122 C54.34160156 121.21625 54.68320313 120.4325 55.03515625 119.625 C58.07413097 111.35702021 58.40371119 103.46800385 58.42553711 94.74902344 C58.43732956 92.53204268 58.48651257 90.31794951 58.53710938 88.1015625 C58.77746113 67.01120967 50.08425291 48.48766601 36 33 C35.09894531 31.95972656 35.09894531 31.95972656 34.1796875 30.8984375 C19.72714382 15.19459134 -2.11892703 6.09434022 -23.17773438 4.8737793 C-51.05460876 3.9134539 -76.72597525 13.34118462 -96 34 Z " fill="#0E161D" transform="translate(159,33)"/>
<path d="M0 0 C-0.78503906 0.52207031 -1.57007812 1.04414062 -2.37890625 1.58203125 C-10.51482125 7.28216311 -15.49875256 12.99750512 -20 22 C-20.10426334 23.396884 -20.14862776 24.79850486 -20.16113281 26.19921875 C-20.17074036 27.06772461 -20.1803479 27.93623047 -20.19024658 28.83105469 C-20.1966214 30.24499512 -20.1966214 30.24499512 -20.203125 31.6875 C-20.20882507 32.65977539 -20.21452515 33.63205078 -20.22039795 34.63378906 C-20.22985989 36.69839385 -20.23638665 38.76301383 -20.24023438 40.82763672 C-20.24987559 43.95958667 -20.28086072 47.09086223 -20.3125 50.22265625 C-20.31903663 52.23176695 -20.3242845 54.24088234 -20.328125 56.25 C-20.3404718 57.17643311 -20.3528186 58.10286621 -20.36553955 59.05737305 C-20.33096946 69.35229884 -17.46036076 78.868372 -11 87 C-5.9441688 91.44725893 -0.32453028 93.89182324 6 96 C7.65 96.66 9.3 97.32 11 98 C11 101.63 11 105.26 11 109 C-2.75165138 106.97769833 -14.22859084 100.75613254 -22.8125 89.65625 C-30.26246937 78.18329717 -32.07793562 65.40492603 -32 52 C-31.505 51.505 -31.505 51.505 -31 51 C-31.08937803 49.47480724 -31.24537146 47.95318071 -31.4375 46.4375 C-31.59025391 45.19806641 -31.59025391 45.19806641 -31.74609375 43.93359375 C-31.82988281 43.29550781 -31.91367188 42.65742187 -32 42 C-31.34 42 -30.68 42 -30 42 C-29.67 42.66 -29.34 43.32 -29 44 C-27.35 43.34 -25.7 42.68 -24 42 C-23.95101562 40.85402344 -23.90203125 39.70804688 -23.8515625 38.52734375 C-23.77647199 36.99737465 -23.70092694 35.46742782 -23.625 33.9375 C-23.5940625 33.18533203 -23.563125 32.43316406 -23.53125 31.65820312 C-23.06058435 22.59788933 -20.80831377 15.07888241 -15 8 C-14.73058594 7.34773438 -14.46117188 6.69546875 -14.18359375 6.0234375 C-12.59493824 3.30751817 -10.87001885 2.55209433 -8.0625 1.1875 C-7.18722656 0.74792969 -6.31195313 0.30835938 -5.41015625 -0.14453125 C-3 -1 -3 -1 0 0 Z " fill="#7BD57F" transform="translate(115,60)"/>
<path d="M0 0 C0.99 0 1.98 0 3 0 C3.33 6.27 3.66 12.54 4 19 C5.32 19 6.64 19 8 19 C9.45933748 13.00679849 10.41509121 7.14154225 11 1 C12.32 1 13.64 1 15 1 C15.495 10.405 15.495 10.405 16 20 C17.98 19.01 19.96 18.02 22 17 C22.93267109 14.52470711 22.93267109 14.52470711 22.875 11.8125 C22.91367188 10.91144531 22.95234375 10.01039062 22.9921875 9.08203125 C22.99476563 8.39496094 22.99734375 7.70789063 23 7 C27.75007145 8.08573062 29.4509022 10.58507582 31.984375 14.44140625 C33 17 33 17 34 26 C16.18 26 -1.64 26 -20 26 C-19.02374607 17.21371459 -18.59868721 14.25595509 -12.375 8.625 C-10 7 -10 7 -8 7 C-7.92652344 7.92232422 -7.92652344 7.92232422 -7.8515625 8.86328125 C-7.77679688 9.67152344 -7.70203125 10.47976562 -7.625 11.3125 C-7.55539063 12.11300781 -7.48578125 12.91351563 -7.4140625 13.73828125 C-7.10435574 16.27224441 -7.10435574 16.27224441 -5 19 C-2.94074861 19.72382467 -2.94074861 19.72382467 -1 20 C-1.00785522 19.14450562 -1.00785522 19.14450562 -1.01586914 18.27172852 C-1.03658221 15.70199677 -1.0496419 13.13228253 -1.0625 10.5625 C-1.07087891 9.66466797 -1.07925781 8.76683594 -1.08789062 7.84179688 C-1.09272461 6.56079102 -1.09272461 6.56079102 -1.09765625 5.25390625 C-1.10551147 4.06776733 -1.10551147 4.06776733 -1.11352539 2.85766602 C-1 1 -1 1 0 0 Z " fill="#8DE29E" transform="translate(123,64)"/>
<path d="M0 0 C16.5 0 33 0 50 0 C47.04577279 8.86268164 45.36831249 12.15168874 37.63671875 16.25390625 C29.56354384 19.85732958 22.49146325 20.13994429 14.203125 17.0390625 C7.43309992 13.84610741 3.08407345 9.8106622 0 3 C0 2.01 0 1.02 0 0 Z " fill="#72CD6C" transform="translate(105,130)"/>
<path d="M0 0 C0.495 0.99 0.495 0.99 1 2 C0.43152344 2.10957031 -0.13695313 2.21914063 -0.72265625 2.33203125 C-10.11486332 4.04412528 -10.11486332 4.04412528 -17 10 C-18.32 10 -19.64 10 -21 10 C-22.67225729 10.30404678 -24.34080104 10.63128912 -26 11 C-25.505 12.485 -25.505 12.485 -25 14 C-26.375 15.5 -26.375 15.5 -28 17 C-28.66 17 -29.32 17 -30 17 C-30.37125 17.886875 -30.7425 18.77375 -31.125 19.6875 C-33 23 -33 23 -36.1875 25.375 C-39.1422842 27.61119863 -39.1422842 27.61119863 -39.38671875 30.08984375 C-39.40922236 32.56169751 -39.40922236 32.56169751 -39 36 C-39.66 36 -40.32 36 -41 36 C-41 36.66 -41 37.32 -41 38 C-41.94875 38.37125 -42.8975 38.7425 -43.875 39.125 C-47.70194198 41.42116519 -47.86709096 42.81695125 -49 47 C-50.5 48.875 -50.5 48.875 -52 50 C-52.66 50 -53.32 50 -54 50 C-53.67 50.99 -53.34 51.98 -53 53 C-54.9375 56.1875 -54.9375 56.1875 -57 59 C-57.66 58.67 -58.32 58.34 -59 58 C-61.31663844 61.93828536 -63.43358249 65.69235185 -65 70 C-65.33 70 -65.66 70 -66 70 C-66.34952992 63.59195145 -65.30724322 58.94777044 -63 53 C-62.70609375 52.11699219 -62.4121875 51.23398438 -62.109375 50.32421875 C-54.3200193 28.84536106 -36.19527107 13.7502642 -16.140625 4.10546875 C-10.65123811 1.59497872 -6.15750849 -0.36111704 0 0 Z " fill="#88CC92" transform="translate(110,41)"/>
<path d="M0 0 C2.61269903 1.00488424 3.70030004 1.77657756 5.4375 3.9375 C5.765625 5.84423828 5.765625 5.84423828 5.6875 8.0078125 C5.65889893 8.8136377 5.63029785 9.61946289 5.60083008 10.44970703 C5.54693115 11.31192871 5.49303223 12.17415039 5.4375 13.0625 C5.38553467 13.95179199 5.33356934 14.84108398 5.2800293 15.75732422 C4.35136079 28.13296128 1.27496647 41.00851022 -6.5625 50.9375 C-7.5525 51.4325 -7.5525 51.4325 -8.5625 51.9375 C-9.2225 51.6075 -9.8825 51.2775 -10.5625 50.9375 C-10.665625 51.55625 -10.76875 52.175 -10.875 52.8125 C-11.5625 54.9375 -11.5625 54.9375 -14.5625 56.9375 C-15.2225 57.9275 -15.8825 58.9175 -16.5625 59.9375 C-15.94460766 52.39921342 -15.94460766 52.39921342 -14.0625 50.125 C-13.32 49.5371875 -13.32 49.5371875 -12.5625 48.9375 C-12.2325 47.9475 -11.9025 46.9575 -11.5625 45.9375 C-12.2225 45.6075 -12.8825 45.2775 -13.5625 44.9375 C-13.22476563 44.23625 -12.88703125 43.535 -12.5390625 42.8125 C-12.09304687 41.86375 -11.64703125 40.915 -11.1875 39.9375 C-10.74664062 39.009375 -10.30578125 38.08125 -9.8515625 37.125 C-6.34132266 28.44513421 -6.41589497 20.94264607 -6.81640625 11.71875 C-6.9829764 4.54643517 -6.9829764 4.54643517 -4.71484375 1.26171875 C-2.5625 -0.0625 -2.5625 -0.0625 0 0 Z " fill="#0C171E" transform="translate(181.5625,102.0625)"/>
<path d="M0 0 C0.30292969 0.66386719 0.60585937 1.32773438 0.91796875 2.01171875 C5.28831946 11.22307331 10.98393132 17.48782705 20.73828125 20.98046875 C23.14391515 21.70522125 25.57072358 22.35894095 28 23 C27.67 26.3 27.34 29.6 27 33 C14.40396643 30.53273569 4.42910267 25.89463381 -3 15 C-3 14.01 -3 13.02 -3 12 C-3.99 11.67 -4.98 11.34 -6 11 C-7.1875 7.4375 -7.1875 7.4375 -8 4 C-7.01 3.67 -6.02 3.34 -5 3 C-5 2.34 -5 1.68 -5 1 C-2 0 -2 0 0 0 Z " fill="#7BCF78" transform="translate(97,134)"/>
<path d="M0 0 C0.99 0 1.98 0 3 0 C3.33 6.27 3.66 12.54 4 19 C5.32 19 6.64 19 8 19 C9.45933748 13.00679849 10.41509121 7.14154225 11 1 C12.32 1 13.64 1 15 1 C15.33 7.27 15.66 13.54 16 20 C17.98 19.67 19.96 19.34 22 19 C21.195625 19.61875 20.39125 20.2375 19.5625 20.875 C16.96125481 22.74164041 16.96125481 22.74164041 16 25 C13.39472895 25.10792837 10.79391689 25.18724878 8.1875 25.25 C7.44951172 25.28351563 6.71152344 25.31703125 5.95117188 25.3515625 C3.79296875 25.390625 3.79296875 25.390625 0 25 C-2.01171875 22.984375 -2.01171875 22.984375 -3 21 C-2.34 21 -1.68 21 -1 21 C-1.00523682 20.39937744 -1.01047363 19.79875488 -1.01586914 19.17993164 C-1.03658014 16.47413162 -1.04964125 13.76834823 -1.0625 11.0625 C-1.07087891 10.11697266 -1.07925781 9.17144531 -1.08789062 8.19726562 C-1.09111328 7.29814453 -1.09433594 6.39902344 -1.09765625 5.47265625 C-1.10289307 4.64000244 -1.10812988 3.80734863 -1.11352539 2.94946289 C-1 1 -1 1 0 0 Z " fill="#84D990" transform="translate(123,64)"/>
<path d="M0 0 C0.33 0 0.66 0 1 0 C1.02505615 1.205354 1.0501123 2.41070801 1.07592773 3.65258789 C1.17045665 8.14601354 1.27056439 12.63930091 1.37231445 17.13256836 C1.41549192 19.07329054 1.45717831 21.01404652 1.49731445 22.95483398 C1.55543566 25.75254477 1.61900716 28.55008814 1.68359375 31.34765625 C1.70030624 32.2083522 1.71701874 33.06904816 1.73423767 33.95582581 C1.82522814 37.6981507 1.99802313 41.28772019 2.64477539 44.97827148 C2.76199951 45.97544189 2.87922363 46.9726123 3 48 C2.34 48.66 1.68 49.32 1 50 C0.34 49.67 -0.32 49.34 -1 49 C-1 49.66 -1 50.32 -1 51 C-1.99 51.495 -1.99 51.495 -3 52 C-2.40138258 54.35171131 -1.73075648 56.6859378 -1 59 C-0.34 59.33 0.32 59.66 1 60 C1.33 60.99 1.66 61.98 2 63 C2.66 63.66 3.32 64.32 4 65 C4.66 65.9075 5.32 66.815 6 67.75 C12.32242835 75.30742164 21.84183596 78.3249349 31 81 C31 78.03 31 75.06 31 72 C31.66 72 32.32 72 33 72 C33 75.63 33 79.26 33 83 C19.2998657 80.98527437 7.52620828 74.77519761 -0.84765625 63.515625 C-4.51641811 57.71050796 -8 51.25705994 -8 44.25 C-6.59785486 41.09517344 -4.60521189 39.22396137 -2 37 C-1.34 37 -0.68 37 0 37 C0 24.79 0 12.58 0 0 Z " fill="#7EC57C" transform="translate(93,86)"/>
<path d="M0 0 C2.97 0.495 2.97 0.495 6 1 C2.67371834 3.21752111 0.19749929 3.74148263 -3.6875 4.625 C-19.94671822 8.66192251 -35.65714231 17.74449859 -47 30 C-47.845625 30.825 -48.69125 31.65 -49.5625 32.5 C-50.366875 33.325 -51.17125 34.15 -52 35 C-52.52078125 35.52464844 -53.0415625 36.04929688 -53.578125 36.58984375 C-61.61606634 45.15278576 -67.13912828 55.97619523 -71 67 C-72.13732426 63.59598052 -71.83989957 61.22543336 -71.0625 57.75 C-70.86785156 56.85796875 -70.67320313 55.9659375 -70.47265625 55.046875 C-70.31667969 54.37140625 -70.16070312 53.6959375 -70 53 C-69.01 53 -68.02 53 -67 53 C-66.773125 52.34 -66.54625 51.68 -66.3125 51 C-64.88742621 47.74268847 -63.14271653 44.90161928 -61.22265625 41.91796875 C-60.26402784 40.41417785 -59.36914694 38.8697216 -58.5 37.3125 C-56.64878862 34.45854913 -54.52750105 32.26827018 -52 30 C-51.34 30 -50.68 30 -50 30 C-49.67 29.01 -49.34 28.02 -49 27 C-48.01 27 -47.02 27 -46 27 C-45.6596875 25.8553125 -45.6596875 25.8553125 -45.3125 24.6875 C-43.40236476 20.7762707 -40.61004868 19.71557719 -36.75 18 C-34.64862526 17.05720054 -34.64862526 17.05720054 -34 14 C-32.02195027 13.27077868 -30.01591298 12.61687868 -28 12 C-25.60103284 10.84325971 -23.23466477 9.66807787 -20.875 8.4375 C-13.88110527 4.7920623 -13.88110527 4.7920623 -10 4 C-8.7934375 3.4740625 -8.7934375 3.4740625 -7.5625 2.9375 C-4.85755065 1.94788438 -2.85458841 1.83688066 0 2 C0 1.34 0 0.68 0 0 Z " fill="#8DC68A" transform="translate(109,28)"/>
<path d="M0 0 C0.66 0.33 1.32 0.66 2 1 C1.33333333 2.33333333 0.66666667 3.66666667 0 5 C-0.33 5.721875 -0.66 6.44375 -1 7.1875 C-2 9 -2 9 -4 10 C-4.474375 11.11375 -4.94875 12.2275 -5.4375 13.375 C-7.60483871 18.40322581 -7.60483871 18.40322581 -10 20 C-13.1875 20.6875 -13.1875 20.6875 -16 21 C-15.773125 21.763125 -15.54625 22.52625 -15.3125 23.3125 C-15.209375 24.199375 -15.10625 25.08625 -15 26 C-15.99300235 27.00694902 -16.99391374 28.00612353 -18 29 C-18.82979736 31.060463 -19.43784691 33.12619129 -20.05859375 35.2578125 C-21 37 -21 37 -23.09765625 37.7421875 C-23.72542969 37.82726562 -24.35320313 37.91234375 -25 38 C-22.37808514 22.98357851 -12.09424284 9.13787237 0 0 Z " fill="#A1DAAC" transform="translate(72,59)"/>
<path d="M0 0 C7.59 0 15.18 0 23 0 C23 2.64 23 5.28 23 8 C15.41 8 7.82 8 0 8 C0 5.36 0 2.72 0 0 Z " fill="#74D67D" transform="translate(134,99)"/>
<path d="M0 0 C7.59 0 15.18 0 23 0 C23 2.64 23 5.28 23 8 C15.41 8 7.82 8 0 8 C0 5.36 0 2.72 0 0 Z " fill="#7DCE84" transform="translate(103,99)"/>
<path d="M0 0 C4.78931147 1.09469976 6.46456297 3.63175903 8.984375 7.5390625 C10 10 10 10 11 18 C5.06 18 -0.88 18 -7 18 C-5 14 -5 14 -2.9375 12.375 C0.06400697 8.69573339 -0.17645273 4.62306143 0 0 Z " fill="#72DC83" transform="translate(146,71)"/>
<path d="M0 0 C0.99 0.556875 1.98 1.11375 3 1.6875 C5 3 5 3 6 6 C6.79921875 6.40476562 7.5984375 6.80953125 8.421875 7.2265625 C11.94387677 9.64927281 12.41108733 12.39530291 13.25 16.375 C13.49411621 17.43170898 13.49411621 17.43170898 13.74316406 18.50976562 C15.15577732 24.95499489 15.77423864 31.40776828 16 38 C16.99 38 17.98 38 19 38 C18.525625 39.175625 18.05125 40.35125 17.5625 41.5625 C15.31244029 48.18531727 15.26481889 55.06905055 15 62 C14.67 62 14.34 62 14 62 C13.9906543 61.00782471 13.98130859 60.01564941 13.97167969 58.9934082 C13.93126326 55.24867776 13.8653736 51.50472522 13.79248047 47.76049805 C13.76456583 46.15187713 13.74320746 44.54312657 13.72900391 42.93432617 C13.60453181 29.61996082 12.87918471 16.0338923 3 6 C-4.74275932 -1.48107561 -13.58109177 -5.17874649 -24.375 -5.3125 C-28.31537778 -5.17288031 -32.14115788 -4.85752047 -36 -4 C-26.58262358 -13.41737642 -8.80780535 -6.70041634 0 0 Z " fill="#90CF94" transform="translate(153,62)"/>
<path d="M0 0 C3.0501742 1.05178421 4.02376402 2.03485389 5.875 4.75 C7 8 7 8 6.5 11 C4.72236426 14.55527148 2.66286497 17.05683345 0 20 C-0.33 19.34 -0.66 18.68 -1 18 C-3.02488628 17.71073053 -5.05244016 17.42727846 -7.08984375 17.24609375 C-9 17 -9 17 -11 16 C-10.236875 15.13375 -9.47375 14.2675 -8.6875 13.375 C-6.2411353 10.4531447 -4.64670192 7.44310402 -3 4 C-2.03465478 2.64136599 -1.04722851 1.29656863 0 0 Z " fill="#73CC7B" transform="translate(164,133)"/>
<path d="M0 0 C7.92 0 15.84 0 24 0 C24 2.31 24 4.62 24 7 C16.08 7 8.16 7 0 7 C0 4.69 0 2.38 0 0 Z " fill="#8BE08A" transform="translate(103,115)"/>
<path d="M0 0 C0.9583374 0.00523682 1.9166748 0.01047363 2.90405273 0.01586914 C4.45576172 0.02070312 4.45576172 0.02070312 6.03881836 0.02563477 C7.12743164 0.03401367 8.21604492 0.04239258 9.33764648 0.05102539 C10.97636719 0.05779297 10.97636719 0.05779297 12.64819336 0.06469727 C15.35723144 0.07652713 18.06616248 0.09300996 20.77514648 0.11352539 C20.77514648 2.42352539 20.77514648 4.73352539 20.77514648 7.11352539 C12.85514648 7.11352539 4.93514648 7.11352539 -3.22485352 7.11352539 C-3.22485352 0.1645514 -3.22485352 0.1645514 0 0 Z " fill="#7FD684" transform="translate(136.224853515625,114.886474609375)"/>
<path d="M0 0 C5.66792796 -0.0591779 11.33207994 -0.05756272 17 0 C17.91007812 0.00386719 18.82015625 0.00773437 19.7578125 0.01171875 C28.22119208 0.4393111 36.16031406 4.02582143 44 7 C45.5076267 7.56559967 47.01543229 8.13072278 48.5234375 8.6953125 C49.67070312 9.12585937 50.81796875 9.55640625 52 10 C52 10.66 52 11.32 52 12 C52.53625 12.103125 53.0725 12.20625 53.625 12.3125 C58.160923 13.62553034 61.80717982 15.52954328 65 19 C67.71641057 21.30894899 69.60152395 22.86717465 73 24 C73.495 24.99 73.495 24.99 74 26 C74.99 26 75.98 26 77 26 C78.92816487 27.48320375 79.87652779 28.40321763 80.375 30.8125 C81.35621603 34.24675611 83.64587921 36.34406885 86 39 C85.505 39.99 85.505 39.99 85 41 C84.28457031 40.17757812 83.56914062 39.35515625 82.83203125 38.5078125 C62.38402234 15.41910915 36.77908726 3.57521236 6 1.3125 C4.00052554 1.19869063 2.00065799 1.09065482 0 1 C0 0.67 0 0.34 0 0 Z " fill="#7AB57F" transform="translate(123,27)"/>
<path d="M0 0 C0.33 0 0.66 0 1 0 C1 2.31 1 4.62 1 7 C1.66 7.33 2.32 7.66 3 8 C2.34 10.31 1.68 12.62 1 15 C1.66 15.33 2.32 15.66 3 16 C2.34 16 1.68 16 1 16 C1.33 16.495 1.66 16.99 2 17.5 C3.14482358 20.36205895 3.01883809 22.69679612 2.95703125 25.7421875 C3.12287036 34.45627873 6.44004665 42.1810088 10 50 C10.53173828 51.20462891 10.53173828 51.20462891 11.07421875 52.43359375 C12.8759287 56.31474759 14.47576683 58.60855606 18 61 C18 61.99 18 62.98 18 64 C19.485 64.495 19.485 64.495 21 65 C21.35994129 66.32639781 21.68937765 67.66119358 22 69 C23.3867198 70.95826419 23.3867198 70.95826419 25.0625 72.75 C25.61035156 73.36359375 26.15820312 73.9771875 26.72265625 74.609375 C27.14417969 75.06828125 27.56570312 75.5271875 28 76 C16.80449073 71.17007897 9.73260619 56.39960363 5.1875 45.8125 C0.76737024 34.53149542 -1.17518003 24.30597667 -1.125 12.1875 C-1.12886719 11.23423828 -1.13273437 10.28097656 -1.13671875 9.29882812 C-1.13542969 8.38939453 -1.13414063 7.47996094 -1.1328125 6.54296875 C-1.13168457 5.71821045 -1.13055664 4.89345215 -1.12939453 4.04370117 C-1 2 -1 2 0 0 Z " fill="#7FBD83" transform="translate(43,112)"/>
<path d="M0 0 C-0.33 3.3 -0.66 6.6 -1 10 C-2.94045688 9.5758071 -4.87731761 9.13514005 -6.8125 8.6875 C-7.89144531 8.44386719 -8.97039062 8.20023438 -10.08203125 7.94921875 C-12.95115343 7.01588985 -14.23768904 6.40539986 -16 4 C-16 3.34 -16 2.68 -16 2 C-16.66 1.67 -17.32 1.34 -18 1 C-18.625 -1.0625 -18.625 -1.0625 -19 -3 C-12.68597845 -5.10467385 -6.08125731 -1.86491891 0 0 Z " fill="#6FCF73" transform="translate(125,157)"/>
<path d="M0 0 C0.33 0 0.66 0 1 0 C1.33 10.89 1.66 21.78 2 33 C2.99 32.505 2.99 32.505 4 32 C4.66 32.99 5.32 33.98 6 35 C6.66 34.01 7.32 33.02 8 32 C8.26404456 38.86515862 7.25841946 45.25846717 6 52 C5.34 52 4.68 52 4 52 C2.97388051 50.34928604 1.97691857 48.68029994 1 47 C0.4225 46.525625 -0.155 46.05125 -0.75 45.5625 C-1.1625 45.046875 -1.575 44.53125 -2 44 C-1.68314987 41.99732252 -1.3454032 39.99795089 -1 38 C-0.80328876 35.03602484 -0.74561032 32.07107072 -0.68359375 29.1015625 C-0.66281265 28.26660248 -0.64203156 27.43164246 -0.62062073 26.57138062 C-0.55560531 23.9226651 -0.49646509 21.27385641 -0.4375 18.625 C-0.39426904 16.82160522 -0.35065334 15.01821962 -0.30664062 13.21484375 C-0.19997361 8.80998961 -0.09857305 4.4050424 0 0 Z " fill="#64B362" transform="translate(166,89)"/>
<path d="M0 0 C0.99 0.66 1.98 1.32 3 2 C3.40843923 4.71203652 3.13336867 7.2437142 3 10 C2.01 10 1.02 10 0 10 C0.66 11.65 1.32 13.3 2 15 C1.01 15.66 0.02 16.32 -1 17 C-2.55100961 19.4633682 -3.20653298 21.73577375 -4 24.5625 C-5 28 -5 28 -7 31 C-7.67441131 32.6635479 -8.3400321 34.33066942 -9 36 C-10.4375 39.25 -10.4375 39.25 -12 42 C-13.485 42.495 -13.485 42.495 -15 43 C-14.79503906 42.39671875 -14.59007812 41.7934375 -14.37890625 41.171875 C-14.10949219 40.37265625 -13.84007812 39.5734375 -13.5625 38.75 C-13.29566406 37.96109375 -13.02882812 37.1721875 -12.75390625 36.359375 C-11.9873986 34.10064724 -11.9873986 34.10064724 -11.609375 32.12890625 C-10.89318214 29.62682221 -9.78230672 27.3991039 -8.62524414 25.07446289 C-4.56858513 16.91150597 -2.02878904 8.88382779 0 0 Z " fill="#549C5F" transform="translate(225,142)"/>
<path d="M0 0 C2.46324069 3.69486103 2.38991688 5.63293092 2 10 C0.875 11.9375 0.875 11.9375 -1 13 C-4 13.4375 -4 13.4375 -7 13 C-8.9375 11.4375 -8.9375 11.4375 -10 9 C-9.875 5.375 -9.875 5.375 -9 2 C-5.54970958 -0.30019361 -4.05445642 -0.43132515 0 0 Z " fill="#070D1A" transform="translate(179,173)"/>
<path d="M0 0 C-0.21869927 3.82723715 -0.91469084 4.91856853 -3.75 7.625 C-5.72369829 9.14688784 -7.64253465 10.37124224 -9.8125 11.625 C-12.31004088 12.87195176 -12.31004088 12.87195176 -13 16 C-15 17 -17 18 -19 19 C-19.33 19.99 -19.66 20.98 -20 22 C-21.97746603 22.73080266 -23.98072489 23.39421747 -26 24 C-26.99 24.66 -27.98 25.32 -29 26 C-30.32 26 -31.64 26 -33 26 C-33 25.34 -33 24.68 -33 24 C-30.92099066 22.59173674 -28.83986214 21.28713978 -26.6875 20 C-19.06500443 15.29052909 -12.63671762 9.78266757 -6.38671875 3.3359375 C-4.38683001 1.40928412 -2.85676647 0 0 0 Z " fill="#53995E" transform="translate(209,185)"/>
<path d="M0 0 C-0.78503906 0.52207031 -1.57007812 1.04414062 -2.37890625 1.58203125 C-11.39530736 7.89904356 -18.23853277 14.94157895 -21 26 C-21.37447792 30.12110369 -21.50809651 34.23953913 -21.625 38.375 C-21.66367188 39.49261719 -21.70234375 40.61023438 -21.7421875 41.76171875 C-21.83606555 44.50765161 -21.92174911 47.25358476 -22 50 C-22.33 50 -22.66 50 -23 50 C-23.05843491 45.97922848 -23.0937424 41.95856741 -23.125 37.9375 C-23.14175781 36.80376953 -23.15851563 35.67003906 -23.17578125 34.50195312 C-23.21029016 28.58367579 -23.04281301 23.57200116 -21 18 C-20.71125 17.13375 -20.4225 16.2675 -20.125 15.375 C-18.78420013 12.5444225 -16.98226326 10.41588335 -15 8 C-14.73058594 7.34773438 -14.46117188 6.69546875 -14.18359375 6.0234375 C-12.59493824 3.30751817 -10.87001885 2.55209433 -8.0625 1.1875 C-7.18722656 0.74792969 -6.31195313 0.30835938 -5.41015625 -0.14453125 C-3 -1 -3 -1 0 0 Z " fill="#8ED38D" transform="translate(115,60)"/>
<path d="M0 0 C0.33 0 0.66 0 1 0 C1 6.6 1 13.2 1 20 C-0.65 19.67 -2.3 19.34 -4 19 C-6.66479955 15.00280068 -6.84285986 11.70183591 -6 7 C-3.5625 4.0625 -3.5625 4.0625 -1 2 C-0.67 1.34 -0.34 0.68 0 0 Z " fill="#070C0D" transform="translate(121,64)"/>
<path d="M0 0 C2.3125 2 2.3125 2 4 4 C-0.72812123 10.21461389 -5.72322331 15.00717684 -13.5 16.8125 C-14.7375 16.9053125 -14.7375 16.9053125 -16 17 C-15.34 16.67 -14.68 16.34 -14 16 C-14 15.34 -14 14.68 -14 14 C-13.05125 13.71125 -12.1025 13.4225 -11.125 13.125 C-7.94788422 12.23174891 -7.94788422 12.23174891 -6 10 C-6.33 9.34 -6.66 8.68 -7 8 C-6.34 8 -5.68 8 -5 8 C-5 6.02 -5 4.04 -5 2 C-6.32 2.33 -7.64 2.66 -9 3 C-7.20702014 -0.58595972 -3.61873235 -0.44130882 0 0 Z " fill="#6EC676" transform="translate(160,149)"/>
<path d="M0 0 C0 3.63 0 7.26 0 11 C-1.32 11.33 -2.64 11.66 -4 12 C-4.33 13.65 -4.66 15.3 -5 17 C-5.66 16.67 -6.32 16.34 -7 16 C-7.33333333 14.66666667 -7.66666667 13.33333333 -8 12 C-8.66 11.67 -9.32 11.34 -10 11 C-9.91563067 8.13144287 -9.41307819 6.44317685 -7.4453125 4.33203125 C-2.48559976 0 -2.48559976 0 0 0 Z " fill="#94ECA4" transform="translate(115,71)"/>
<path d="M0 0 C0.495 0.99 0.495 0.99 1 2 C0.43152344 2.10957031 -0.13695312 2.21914063 -0.72265625 2.33203125 C-10.11486332 4.04412528 -10.11486332 4.04412528 -17 10 C-18.32 10 -19.64 10 -21 10 C-22.67225729 10.30404678 -24.34080104 10.63128912 -26 11 C-25.67 11.99 -25.34 12.98 -25 14 C-26.125 15.5 -26.125 15.5 -28 17 C-31.1875 17.1875 -31.1875 17.1875 -34 17 C-34.33 16.34 -34.66 15.68 -35 15 C-10.24653313 -0.6009245 -10.24653313 -0.6009245 0 0 Z " fill="#86C385" transform="translate(110,41)"/>
<path d="M0 0 C2.31 0.33 4.62 0.66 7 1 C7 1.33 7 1.66 7 2 C5.35 2 3.7 2 2 2 C2.99 3.485 2.99 3.485 4 5 C4 5.99 4 6.98 4 8 C4.556875 8.061875 5.11375 8.12375 5.6875 8.1875 C8 9 8 9 10.3125 11.4375 C15.87200338 16.73842183 22.54005834 16.41601205 29.89453125 16.33984375 C34.16876049 15.87209791 36.50029941 14.41090485 40 12 C40.66 12.33 41.32 12.66 42 13 C40.75443908 13.81928886 39.50333365 14.63015186 38.25 15.4375 C37.55390625 15.88996094 36.8578125 16.34242188 36.140625 16.80859375 C30.7927843 19.78503794 24.59105667 19.71821133 18.6953125 18.5390625 C11.5971666 16.45137253 5.38182418 12.75496609 1.5 6.3125 C0 3 0 3 0 0 Z " fill="#80C182" transform="translate(105,130)"/>
<path d="M0 0 C0.66 0 1.32 0 2 0 C2 0.66 2 1.32 2 2 C2.99 2.33 3.98 2.66 5 3 C1.25 5 1.25 5 -1 5 C-0.6596875 6.1446875 -0.6596875 6.1446875 -0.3125 7.3125 C-0.209375 8.199375 -0.10625 9.08625 0 10 C-0.99300235 11.00694902 -1.99391374 12.00612353 -3 13 C-3.82979736 15.060463 -4.43784691 17.12619129 -5.05859375 19.2578125 C-6 21 -6 21 -8.09765625 21.7421875 C-8.72542969 21.82726562 -9.35320313 21.91234375 -10 22 C-8.534275 13.60539316 -5.53613798 6.5695504 0 0 Z " fill="#A7DFBA" transform="translate(57,75)"/>
<path d="M0 0 C0.99 0.33 1.98 0.66 3 1 C0.34061951 5.80734166 -2.54005971 10.37758814 -5.62109375 14.92578125 C-6.67963224 16.51808703 -7.6684434 18.15692128 -8.625 19.8125 C-11.64376523 24.61508105 -16.44955239 28.63760029 -21 32 C-21.66 32 -22.32 32 -23 32 C-21.54054716 28.56913965 -19.66848407 26.57192275 -16.9375 24.0625 C-9.82911344 17.12636837 -4.27393529 8.96451207 0 0 Z " fill="#081410" transform="translate(209,162)"/>
<path d="M0 0 C0.99 0.33 1.98 0.66 3 1 C3.33 1.99 3.66 2.98 4 4 C4.66 4.66 5.32 5.32 6 6 C6.66 6.9075 7.32 7.815 8 8.75 C14.32242835 16.30742164 23.84183596 19.3249349 33 22 C33 19.03 33 16.06 33 13 C33.66 13 34.32 13 35 13 C35 16.63 35 20.26 35 24 C22.12583199 22.10674 11.83395271 16.6385632 3 7 C0 2.52307692 0 2.52307692 0 0 Z " fill="#8BC690" transform="translate(91,145)"/>
<path d="M0 0 C2.97 0.495 2.97 0.495 6 1 C6 1.66 6 2.32 6 3 C6.99 3.33 7.98 3.66 9 4 C11.54717877 9.82212291 10.76346957 14.01776862 9 20 C8.05125 20.12375 7.1025 20.2475 6.125 20.375 C2.91332809 20.71687177 2.91332809 20.71687177 1 23 C0.67 21.68 0.34 20.36 0 19 C0.969375 18.525625 1.93875 18.05125 2.9375 17.5625 C5.80477437 16.29806053 5.80477437 16.29806053 7 15 C7.30523962 10.34911285 7.30523962 10.34911285 6 6 C3.6859378 5.26924352 1.35171131 4.59861742 -1 4 C-0.67 2.68 -0.34 1.36 0 0 Z " fill="#5BA35B" transform="translate(173,168)"/>
<path d="M0 0 C0.66 1.32 1.32 2.64 2 4 C3.32 3.34 4.64 2.68 6 2 C6.08082094 3.95766281 6.13910778 5.91626728 6.1875 7.875 C6.22230469 8.96554688 6.25710937 10.05609375 6.29296875 11.1796875 C6.19628906 12.11039063 6.09960938 13.04109375 6 14 C3 16 3 16 0 16 C-1.52634923 12.94730154 -0.83794444 10.24154311 -0.5625 6.875 C-0.46066406 5.59367187 -0.35882813 4.31234375 -0.25390625 2.9921875 C-0.12822266 1.51105469 -0.12822266 1.51105469 0 0 Z " fill="#081314" transform="translate(139,68)"/>
<path d="M0 0 C5.66792796 -0.0591779 11.33207994 -0.05756272 17 0 C17.91007812 0.00386719 18.82015625 0.00773437 19.7578125 0.01171875 C27.58129286 0.4069817 34.81434742 3.56073081 42.07226562 6.28857422 C44.69411937 7.2561631 47.34275095 8.13514064 50 9 C50 9.66 50 10.32 50 11 C45.87405075 10.30068657 42.12384939 9.03236219 38.1875 7.625 C25.70778608 3.34306325 13.15407373 1.59604397 0 1 C0 0.67 0 0.34 0 0 Z " fill="#8AC68C" transform="translate(123,27)"/>
<path d="M0 0 C2.64329833 2.64329833 3.26290631 4.31453157 4 8 C3.4263295 10.41849576 2.64375331 12.64029059 1.7265625 14.94921875 C0.83302658 17.10868211 0.83302658 17.10868211 1 20 C-0.5 21.6875 -0.5 21.6875 -2 23 C-2.16682272 18.07872966 -2.24828052 14.49656104 0 10 C-0.99 9.67 -1.98 9.34 -3 9 C-2.01 6.03 -1.02 3.06 0 0 Z " fill="#67B56A" transform="translate(184,133)"/>
<path d="M0 0 C2.50698813 4.43884737 2.34349376 8.25389994 2.3125 13.25 C2.30839111 14.57342407 2.30839111 14.57342407 2.30419922 15.92358398 C2.16725123 24.67015278 1.95307393 35.57038911 -3 43 C-2.08793325 35.44287548 -2.08793325 35.44287548 -1.46484375 32.3046875 C-0.87213729 28.09099281 -0.93624027 23.99715301 -1 19.75 C-1.0562821 13.0850485 -0.86824825 6.62039289 0 0 Z " fill="#060D0D" transform="translate(225,111)"/>
<path d="M0 0 C4.80374838 7.20562257 4.50674984 16.6017671 5 25 C5.99 25 6.98 25 8 25 C7.525625 26.175625 7.05125 27.35125 6.5625 28.5625 C4.31244029 35.18531727 4.26481889 42.06905055 4 49 C3.67 49 3.34 49 3 49 C2.98541748 48.00258789 2.97083496 47.00517578 2.95581055 45.97753906 C2.89713105 42.21987906 2.81991407 38.46277557 2.73754883 34.70556641 C2.70462273 33.09009949 2.6764942 31.47452644 2.65356445 29.85888672 C2.52380016 20.95208632 2.16965219 12.77480641 -0.46557617 4.17871094 C-1 2 -1 2 0 0 Z " fill="#86CA87" transform="translate(164,75)"/>
<path d="M0 0 C3.05943376 2.63969438 4.60936081 5.7755627 6.5 9.3125 C10.85147314 17.22256219 16.30613135 24.02754049 22 31 C23.00896506 32.3265622 24.01368374 33.65651274 25 35 C20.82010546 33.43376317 18.43914599 30.35105705 15.6875 27 C15.20474609 26.41694092 14.72199219 25.83388184 14.22460938 25.2331543 C7.66715049 17.23660021 2.29478629 10.27190054 0 0 Z " fill="#78AF7B" transform="translate(39,161)"/>
<path d="M0 0 C0.5775 0.20625 1.155 0.4125 1.75 0.625 C-0.77238656 2.21050013 -3.1620327 3.59022223 -5.9375 4.6875 C-8.3927942 5.50803421 -8.3927942 5.50803421 -10.25 7.625 C-10.89767793 10.19561311 -10.89767793 10.19561311 -11.25 12.625 C-11.58 11.965 -11.91 11.305 -12.25 10.625 C-13.24 10.955 -14.23 11.285 -15.25 11.625 C-15.229375 10.820625 -15.20875 10.01625 -15.1875 9.1875 C-14.95366379 6.69145115 -14.95366379 6.69145115 -16.25 5.625 C-16.25 7.605 -16.25 9.585 -16.25 11.625 C-16.58 11.625 -16.91 11.625 -17.25 11.625 C-17.25 9.315 -17.25 7.005 -17.25 4.625 C-16.12851563 4.33496094 -16.12851563 4.33496094 -14.984375 4.0390625 C-13.99953125 3.77867187 -13.0146875 3.51828125 -12 3.25 C-11.02546875 2.99476563 -10.0509375 2.73953125 -9.046875 2.4765625 C-6.28796544 1.7245974 -6.28796544 1.7245974 -4.03125 0.5 C-2.25 -0.375 -2.25 -0.375 0 0 Z " fill="#5FB360" transform="translate(151.25,152.375)"/>
<path d="M0 0 C1.32 0 2.64 0 4 0 C3.44350741 3.78583594 1.89227962 5.37801976 -0.875 7.9375 C-3.82023092 10.76133252 -6.15491353 13.30982705 -8 17 C-8.33 16.01 -8.66 15.02 -9 14 C-7.625 11.4375 -7.625 11.4375 -6 9 C-4.7018576 6.7763932 -4.7018576 6.7763932 -5 3 C-3.35 2.34 -1.7 1.68 0 1 C0 0.67 0 0.34 0 0 Z " fill="#8DD889" transform="translate(61,77)"/>
<path d="M0 0 C0.66 0.99 1.32 1.98 2 3 C1.01 4.65 0.02 6.3 -1 8 C-1.66 7.67 -2.32 7.34 -3 7 C-4.65 8.32 -6.3 9.64 -8 11 C-8.33 10.67 -8.66 10.34 -9 10 C-9.99 11.485 -9.99 11.485 -11 13 C-13 13 -15 13 -17 13 C-17.33 12.34 -17.66 11.68 -18 11 C-17.03578125 10.54109375 -16.0715625 10.0821875 -15.078125 9.609375 C-13.80187267 8.99001725 -12.52584263 8.37020128 -11.25 7.75 C-10.61578125 7.44964844 -9.9815625 7.14929688 -9.328125 6.83984375 C-5.58312578 5.00635455 -2.75196117 3.14112739 0 0 Z " fill="#64AE6D" transform="translate(166,163)"/>
<path d="M0 0 C0 0.99 0 1.98 0 3 C-1.95571152 4.89906743 -3.88764507 6.60473093 -6 8.3125 C-6.58998779 8.80016846 -7.17997559 9.28783691 -7.7878418 9.7902832 C-12.09444276 13.32820563 -16.48832062 16.72682084 -21 20 C-21 17 -21 17 -18.69140625 14.51171875 C-17.6577132 13.56013679 -16.61409965 12.61925518 -15.5625 11.6875 C-15.02206055 11.19983154 -14.48162109 10.71216309 -13.92480469 10.2097168 C-9.56954388 6.34843763 -4.99908592 2.99187718 0 0 Z " fill="#1A2E28" transform="translate(79,43)"/>
<path d="M0 0 C0.4125 0.45375 0.825 0.9075 1.25 1.375 C3.06408095 3.05950374 4.75285627 3.99265971 7 5 C7 5.99 7 6.98 7 8 C3.04 8 -0.92 8 -5 8 C-4.67 6.35 -4.34 4.7 -4 3 C-3.34 3 -2.68 3 -2 3 C-1.67 2.34 -1.34 1.68 -1 1 C-0.67 0.67 -0.34 0.34 0 0 Z " fill="#80EB91" transform="translate(115,80)"/>
<path d="M0 0 C0.85013672 -0.01224609 1.70027344 -0.02449219 2.57617188 -0.03710938 C3.80883789 -0.04000977 3.80883789 -0.04000977 5.06640625 -0.04296875 C5.80963135 -0.04707764 6.55285645 -0.05118652 7.31860352 -0.05541992 C9.72244353 0.22016722 11.34893314 0.99542529 13.4375 2.1875 C3.08055688 2.94964036 -7.1760207 3.32180792 -17.5625 3.1875 C-12.10679289 -0.44963807 -6.35598194 0.00484081 0 0 Z " fill="#8AC182" transform="translate(128.5625,37.8125)"/>
<path d="M0 0 C3.31044801 1.26250829 6.34501107 2.71706855 9.4375 4.4375 C14.82913921 7.20661984 20.25198598 8.28210303 26.19140625 9.32421875 C27.11824219 9.54722656 28.04507813 9.77023438 29 10 C29.33 10.66 29.66 11.32 30 12 C19.73360453 12.66954753 10.45338261 8.63558841 2 3 C1.34 2.01 0.68 1.02 0 0 Z " fill="#0B180E" transform="translate(96,165)"/>
<path d="M0 0 C1.50433594 0.01353516 1.50433594 0.01353516 3.0390625 0.02734375 C3.80992187 0.03894531 4.58078125 0.05054687 5.375 0.0625 C5.375 1.7125 5.375 3.3625 5.375 5.0625 C3.7723218 5.17074843 2.16754252 5.24820645 0.5625 5.3125 C-0.33082031 5.35890625 -1.22414062 5.4053125 -2.14453125 5.453125 C-4.625 5.0625 -4.625 5.0625 -6.44921875 3.046875 C-6.83722656 2.39203125 -7.22523438 1.7371875 -7.625 1.0625 C-4.98041621 -0.25979189 -2.94738699 -0.03427194 0 0 Z " fill="#7AE576" transform="translate(150.625,115.9375)"/>
<path d="M0 0 C1.36207958 2.72415916 0.86166193 4.12779357 0 7 C-0.99 7.66 -1.98 8.32 -3 9 C-3.72965366 11.56282742 -3.72965366 11.56282742 -4 14 C-4.99 14 -5.98 14 -7 14 C-7.04125 14.763125 -7.0825 15.52625 -7.125 16.3125 C-8 19 -8 19 -11.0625 20.8125 C-12.031875 21.204375 -13.00125 21.59625 -14 22 C-12.29156686 18.22297755 -9.94665698 14.93267343 -7.5625 11.5625 C-4.89871358 7.7862677 -2.32424633 3.99830157 0 0 Z " fill="#9CDCB4" transform="translate(181,142)"/>
<path d="M0 0 C4.875 1.75 4.875 1.75 6 4 C5.22265625 6.1640625 5.22265625 6.1640625 4.0625 8.625 C3.68222656 9.44226563 3.30195313 10.25953125 2.91015625 11.1015625 C2.45962891 12.04128906 2.45962891 12.04128906 2 13 C0.68 12.67 -0.64 12.34 -2 12 C-1.67 11.34 -1.34 10.68 -1 10 C-0.77377919 8.29636178 -0.59111527 6.58671299 -0.4375 4.875 C-0.35371094 3.96492188 -0.26992187 3.05484375 -0.18359375 2.1171875 C-0.12300781 1.41851562 -0.06242188 0.71984375 0 0 Z " fill="#72C882" transform="translate(146,71)"/>
<path d="M0 0 C2.29013653 3.4352048 2.17842973 4.985331 2 9 C-1.23464083 10.61732041 -4.74708451 9.99875197 -8.2890625 9.87890625 C-9.10748627 9.85529526 -9.92591003 9.83168427 -10.76913452 9.80735779 C-13.3879306 9.73067056 -16.00643471 9.64666817 -18.625 9.5625 C-20.39842312 9.50928437 -22.17186058 9.45654393 -23.9453125 9.40429688 C-28.29706054 9.2750486 -32.64856061 9.13923848 -37 9 C-37 8.67 -37 8.34 -37 8 C-24.79 8 -12.58 8 0 8 C0 5.36 0 2.72 0 0 Z " fill="#020608" transform="translate(157,83)"/>
<path d="M0 0 C1.32 0 2.64 0 4 0 C4.11138159 5.45769811 3.91657981 10.61509359 3 16 C2.01 15.34 1.02 14.68 0 14 C-0.29296875 10.7421875 -0.29296875 10.7421875 -0.1875 6.875 C-0.16042969 5.59367187 -0.13335937 4.31234375 -0.10546875 2.9921875 C-0.07066406 2.00476563 -0.03585938 1.01734375 0 0 Z " fill="#9BF4A5" transform="translate(134,65)"/>
<path d="M0 0 C2.29013653 3.4352048 2.17842973 4.985331 2 9 C1.67 7.68 1.34 6.36 1 5 C0.34 5 -0.32 5 -1 5 C-1 4.01 -1 3.02 -1 2 C-3.31 2.66 -5.62 3.32 -8 4 C-7.67 6.64 -7.34 9.28 -7 12 C-8.5625 10.9375 -8.5625 10.9375 -10 9 C-9.875 5.4375 -9.875 5.4375 -9 2 C-5.54970958 -0.30019361 -4.05445642 -0.43132515 0 0 Z " fill="#09110E" transform="translate(179,173)"/>
<path d="M0 0 C0.33 0 0.66 0 1 0 C1 1.65 1 3.3 1 5 C1.66 5.33 2.32 5.66 3 6 C-0.42388092 9.82669043 -3.00724943 11.72278474 -8 13 C-7.4225 12.154375 -6.845 11.30875 -6.25 10.4375 C-3.98768929 7.05211361 -1.98905191 3.55187841 0 0 Z " fill="#90CFA5" transform="translate(161,137)"/>
<path d="M0 0 C0 2.31 0 4.62 0 7 C-5.94 7 -11.88 7 -18 7 C-18 6.67 -18 6.34 -18 6 C-12.555 5.505 -12.555 5.505 -7 5 C-7 4.01 -7 3.02 -7 2 C-1.125 0 -1.125 0 0 0 Z " fill="#76C975" transform="translate(127,115)"/>
<path d="M0 0 C0.66 0.99 1.32 1.98 2 3 C0.71034824 4.37562854 -0.62689293 5.70766393 -2 7 C-2.66 7 -3.32 7 -4 7 C-3.67 7.99 -3.34 8.98 -3 10 C-4.9375 13.1875 -4.9375 13.1875 -7 16 C-7.66 15.01 -8.32 14.02 -9 13 C-3.9977221 3.40546697 -3.9977221 3.40546697 0 0 Z " fill="#81D180" transform="translate(60,84)"/>
<path d="M0 0 C0.33 0 0.66 0 1 0 C1.33 4.29 1.66 8.58 2 13 C0.35 12.67 -1.3 12.34 -3 12 C-3.97110486 8.97878489 -4.13617383 6.99536737 -3 4 C-2.34 3.67 -1.68 3.34 -1 3 C-0.67 2.01 -0.34 1.02 0 0 Z " fill="#0C1317" transform="translate(120,71)"/>
<path d="M0 0 C0 0.66 0 1.32 0 2 C-1.134375 2.268125 -2.26875 2.53625 -3.4375 2.8125 C-6.60839036 3.58835615 -9.62285354 4.56653871 -12.6875 5.6875 C-16.14713359 6.88460505 -18.43988295 7.26326734 -22 6 C-18.64153509 3.7610234 -15.41108679 2.87127846 -11.5625 1.875 C-10.89412109 1.69324219 -10.22574219 1.51148437 -9.53710938 1.32421875 C-6.2051237 0.44581618 -3.47463228 0 0 0 Z " fill="#1D332D" transform="translate(116,30)"/>
<path d="M0 0 C1.32 0.33 2.64 0.66 4 1 C2.23885299 3.00932223 0.46713537 5.00716745 -1.3125 7 C-1.81201172 7.57234375 -2.31152344 8.1446875 -2.82617188 8.734375 C-4.15598061 10.21389731 -5.57387123 11.61308462 -7 13 C-7.99 13 -8.98 13 -10 13 C-6.25 7.125 -6.25 7.125 -4 6 C-2.86649466 3.98330173 -2.86649466 3.98330173 -2 2 C-1.34 2 -0.68 2 0 2 C0 1.34 0 0.68 0 0 Z " fill="#61A95E" transform="translate(197,176)"/>
<path d="M0 0 C5.47533259 -0.36502217 5.47533259 -0.36502217 7.69458008 1.17895508 C9.49417648 3.68937019 9.26012514 5.26521356 9.07421875 8.32421875 C8.99204102 9.86625977 8.99204102 9.86625977 8.90820312 11.43945312 C8.83537109 12.51130859 8.76253906 13.58316406 8.6875 14.6875 C8.62626953 15.77095703 8.56503906 16.85441406 8.50195312 17.97070312 C8.3486115 20.64828378 8.18075343 23.32415282 8 26 C7.67 26 7.34 26 7 26 C7.01571045 25.40985107 7.0314209 24.81970215 7.04760742 24.21166992 C7.10997939 21.53704414 7.14899657 18.86257136 7.1875 16.1875 C7.21263672 15.25873047 7.23777344 14.32996094 7.26367188 13.37304688 C7.27333984 12.48037109 7.28300781 11.58769531 7.29296875 10.66796875 C7.3086792 9.84578857 7.32438965 9.0236084 7.34057617 8.17651367 C6.91798263 5.47585314 6.15407691 4.63380852 4 3 C1.39388923 2.27802838 1.39388923 2.27802838 -1 2 C-0.67 1.34 -0.34 0.68 0 0 Z " fill="#85C686" transform="translate(179,100)"/>
<path d="M0 0 C0 0.66 0 1.32 0 2 C0.99 2.33 1.98 2.66 3 3 C-0.75 5 -0.75 5 -3 5 C-2.67 6.65 -2.34 8.3 -2 10 C-3.32 10.99 -4.64 11.98 -6 13 C-6.48929664 5.78287462 -6.48929664 5.78287462 -4.125 2 C-2 0 -2 0 0 0 Z " fill="#AEE5C0" transform="translate(59,75)"/>
<path d="M0 0 C0.66 0 1.32 0 2 0 C1.52140759 1.60433809 1.04210442 3.20846416 0.5625 4.8125 C0.29566406 5.70582031 0.02882812 6.59914062 -0.24609375 7.51953125 C-0.80387873 9.35473055 -1.39344575 11.18033726 -2 13 C-5.0625 14.1875 -5.0625 14.1875 -8 15 C-8 14.34 -8 13.68 -8 13 C-7.01 13 -6.02 13 -5 13 C-5 11.35 -5 9.7 -5 8 C-3.68 7.34 -2.36 6.68 -1 6 C-1.020625 5.195625 -1.04125 4.39125 -1.0625 3.5625 C-1 1 -1 1 0 0 Z " fill="#78CA86" transform="translate(182,143)"/>
<path d="M0 0 C-0.48752905 4.22525176 -3.00101407 7.1676244 -6 10 C-9.3125 11.875 -9.3125 11.875 -12 13 C-10.49017269 9.57143381 -8.48286031 7.04321784 -6 4.25 C-5.29875 3.45078125 -4.5975 2.6515625 -3.875 1.828125 C-2 0 -2 0 0 0 Z " fill="#060D10" transform="translate(170,148)"/>
<path d="M0 0 C3.63 0 7.26 0 11 0 C11.33 0.99 11.66 1.98 12 3 C6.06 3.495 6.06 3.495 0 4 C0 2.68 0 1.36 0 0 Z " fill="#72DE7F" transform="translate(104,101)"/>
<path d="M0 0 C0.99 0.66 1.98 1.32 3 2 C3.66 1.34 4.32 0.68 5 0 C5 3.3 5 6.6 5 10 C3.68 9.67 2.36 9.34 1 9 C-0.77190909 10.35444301 -0.77190909 10.35444301 -2 12 C-2.99 11.67 -3.98 11.34 -5 11 C-4.0409375 10.2265625 -4.0409375 10.2265625 -3.0625 9.4375 C-0.44208319 6.34064377 -0.30610183 3.97932377 0 0 Z " fill="#97E4A1" transform="translate(133,74)"/>
<path d="M0 0 C-6.435 4.95 -6.435 4.95 -13 10 C-13.66 9.34 -14.32 8.68 -15 8 C-13.53990876 4.14766886 -11.71658852 2.96356946 -8.0625 1.1875 C-7.18722656 0.74792969 -6.31195313 0.30835938 -5.41015625 -0.14453125 C-3 -1 -3 -1 0 0 Z " fill="#93CB95" transform="translate(115,60)"/>
<path d="M0 0 C0.66 0 1.32 0 2 0 C2 3.63 2 7.26 2 11 C-7.625 9.25 -7.625 9.25 -11 7 C-9 6 -9 6 -6.8359375 6.55859375 C-6.02382812 6.84863281 -5.21171875 7.13867188 -4.375 7.4375 C-3.55773437 7.72496094 -2.74046875 8.01242188 -1.8984375 8.30859375 C-1.27195312 8.53675781 -0.64546875 8.76492187 0 9 C0 6.03 0 3.06 0 0 Z " fill="#79C085" transform="translate(124,158)"/>
<path d="M0 0 C0.33 0 0.66 0 1 0 C1 1.98 1 3.96 1 6 C1.66 6 2.32 6 3 6 C2.37240135 8.92879371 1.41377341 11.36095629 0 14 C-0.99 13.67 -1.98 13.34 -3 13 C-2.34 12.01 -1.68 11.02 -1 10 C-1.33 9.67 -1.66 9.34 -2 9 C-2.26293056 4.96839809 -2.29404844 3.44107266 0 0 Z " fill="#81D786" transform="translate(164,133)"/>
<path d="M0 0 C0.99 0 1.98 0 3 0 C3 5.61 3 11.22 3 17 C2.34 17 1.68 17 1 17 C0.67 11.39 0.34 5.78 0 0 Z " fill="#AEF5BC" transform="translate(122,65)"/>
<path d="M0 0 C0.99 0.33 1.98 0.66 3 1 C3.33 2.65 3.66 4.3 4 6 C3.34 6 2.68 6 2 6 C2 6.66 2 7.32 2 8 C0.68 8.33 -0.64 8.66 -2 9 C-2.6875 7.3125 -2.6875 7.3125 -3 5 C-1.5625 2.25 -1.5625 2.25 0 0 Z " fill="#84CE83" transform="translate(67,71)"/>
<path d="M0 0 C1 2 1 2 0.25 4.875 C-1.41845271 9.04613177 -2.54729537 11.32432343 -6.6875 13.25 C-7.450625 13.4975 -8.21375 13.745 -9 14 C-7.45158425 10.65291949 -5.50894136 7.75332488 -3.375 4.75 C-2.74335938 3.85796875 -2.11171875 2.9659375 -1.4609375 2.046875 C-0.73777344 1.03367188 -0.73777344 1.03367188 0 0 Z " fill="#65A67C" transform="translate(213,174)"/>
<path d="M0 0 C0 0.66 0 1.32 0 2 C-0.94875 2.28875 -1.8975 2.5775 -2.875 2.875 C-6.05211578 3.76825109 -6.05211578 3.76825109 -8 6 C-8.16687448 8.58354218 -8.16687448 8.58354218 -8 11 C-8.66 11 -9.32 11 -10 11 C-10.66 8.69 -11.32 6.38 -12 4 C-11.01 4 -10.02 4 -9 4 C-9.33 3.01 -9.66 2.02 -10 1 C-6.61981469 -0.04005702 -3.5219721 -0.08004482 0 0 Z " fill="#99D38D" transform="translate(82,100)"/>
<path d="M0 0 C3.96 0 7.92 0 12 0 C10.515 1.485 10.515 1.485 9 3 C7.68 3 6.36 3 5 3 C3.2488427 4.4166747 3.2488427 4.4166747 2 6 C1.34 5.67 0.68 5.34 0 5 C0 3.35 0 1.7 0 0 Z " fill="#8FC882" transform="translate(0,0)"/>
<path d="M0 0 C7.26 0 14.52 0 22 0 C21 2 21 2 19.19433594 2.64624023 C16.93093614 3.01113413 15.15863929 2.952249 12.890625 2.66015625 C11.75947266 2.5199707 11.75947266 2.5199707 10.60546875 2.37695312 C9.82816406 2.27318359 9.05085937 2.16941406 8.25 2.0625 C7.45722656 1.96259766 6.66445312 1.86269531 5.84765625 1.75976562 C3.89759629 1.51307129 1.94867414 1.2574122 0 1 C0 0.67 0 0.34 0 0 Z " fill="#010B09" transform="translate(136,107)"/>
<path d="M0 0 C0.33 0 0.66 0 1 0 C0.76923811 2.44018427 0.52930983 4.87870362 0.2734375 7.31640625 C0.10941469 8.92617292 -0.03710874 10.53807669 -0.1484375 12.15234375 C-0.3125 14 -0.3125 14 -1 17 C-3.04296875 18.1875 -3.04296875 18.1875 -5 19 C-4.54543566 16.95749089 -4.08617174 14.9160274 -3.625 12.875 C-3.24214844 11.16957031 -3.24214844 11.16957031 -2.8515625 9.4296875 C-2.05363523 6.21601712 -1.09209441 3.12433966 0 0 Z " fill="#091310" transform="translate(217,138)"/>
<path d="M0 0 C0.88365234 0.00451172 1.76730469 0.00902344 2.67773438 0.01367188 C4.84768559 0.02540134 7.01760172 0.04333505 9.1875 0.0625 C5.78151269 2.33315821 4.65895575 2.25844945 0.6875 2.125 C-2.59530975 2.02351529 -4.67066604 2.01522201 -7.8125 3.0625 C-10.1531065 2.78480092 -12.48874308 2.45710023 -14.8125 2.0625 C-14.8125 1.7325 -14.8125 1.4025 -14.8125 1.0625 C-9.89747242 -0.22985715 -5.03959898 -0.04885517 0 0 Z " fill="#010A05" transform="translate(117.8125,121.9375)"/>
<path d="M0 0 C1.875 0.625 1.875 0.625 4 2 C4.68025637 3.99541868 5.34490497 5.99617991 6 8 C7.53669063 10.15624526 9.21832779 12.03078334 11 14 C10.67 14.66 10.34 15.32 10 16 C0 4.95890411 0 4.95890411 0 0 Z " fill="#75BC77" transform="translate(198,52)"/>
<path d="M0 0 C-4.08473242 2.97071449 -6.9834834 3.47325628 -12 3 C-12.66 2.34 -13.32 1.68 -14 1 C-12.42298018 0.44021816 -10.83800758 -0.09719401 -9.25 -0.625 C-7.92742187 -1.07746094 -7.92742187 -1.07746094 -6.578125 -1.5390625 C-3.58982529 -2.07333427 -2.50076998 -1.62433191 0 0 Z " fill="#508E54" transform="translate(165,217)"/>
<path d="M0 0 C1.44558008 2.77753377 2.65035413 5.54539908 3.6875 8.5 C3.95949219 9.2528125 4.23148438 10.005625 4.51171875 10.78125 C5.0519311 13.23597493 4.79774824 14.64423338 4 17 C3.34 17 2.68 17 2 17 C-0.29612756 5.47835991 -0.29612756 5.47835991 0 0 Z " fill="#77AF76" transform="translate(34,143)"/>
<path d="M0 0 C0.66 0.33 1.32 0.66 2 1 C2 1.99 2 2.98 2 4 C0.02 4.99 0.02 4.99 -2 6 C-2 6.99 -2 7.98 -2 9 C-4.96175123 8.38722388 -6.38058783 7.74627478 -9 6 C-5.535 5.505 -5.535 5.505 -2 5 C-1.34 3.35 -0.68 1.7 0 0 Z " fill="#6BD778" transform="translate(166,142)"/>
<path d="M0 0 C0.33 0.99 0.66 1.98 1 3 C-1.57784846 5.64752004 -3.91648098 7.94432065 -7 10 C-7 9.34 -7 8.68 -7 8 C-7.66 7.67 -8.32 7.34 -9 7 C-7.88625 6.38125 -7.88625 6.38125 -6.75 5.75 C-4.09828315 4.06254382 -2.13325986 2.29127911 0 0 Z " fill="#6FC278" transform="translate(176,157)"/>
<path d="M0 0 C-2.22825644 2.22825644 -3.65761628 2.69239369 -6.625 3.625 C-7.44226563 3.88539063 -8.25953125 4.14578125 -9.1015625 4.4140625 C-9.72804687 4.60742188 -10.35453125 4.80078125 -11 5 C-8.6102683 -1.65710974 -6.76304013 -1.12717335 0 0 Z " fill="#5EAB5D" transform="translate(170,202)"/>
<path d="M0 0 C0.66 0.33 1.32 0.66 2 1 C1.401875 1.86625 0.80375 2.7325 0.1875 3.625 C-1.82044534 6.62619944 -3.44655098 9.73775706 -5 13 C-5.66 12.34 -6.32 11.68 -7 11 C-5.68 8.36 -4.36 5.72 -3 3 C-2.34 3 -1.68 3 -1 3 C-0.67 2.01 -0.34 1.02 0 0 Z " fill="#1B3634" transform="translate(55,75)"/>
<path d="M0 0 C1.65 0.99 3.3 1.98 5 3 C4.67 4.32 4.34 5.64 4 7 C2.68 7.33 1.36 7.66 0 8 C0 5.36 0 2.72 0 0 Z " fill="#7FE698" transform="translate(104,81)"/>
<path d="M0 0 C2.96404505 2.80804268 5.44499019 5.18315774 7 9 C5.02 8.34 3.04 7.68 1 7 C0 2.25 0 2.25 0 0 Z " fill="#74B174" transform="translate(198,71)"/>
<path d="M0 0 C0.66 0 1.32 0 2 0 C0.6302836 3.99500618 -1.25722422 6.80009492 -4 10 C-4.66 9.67 -5.32 9.34 -6 9 C-5.67 8.01 -5.34 7.02 -5 6 C-4.34 6 -3.68 6 -3 6 C-2.87625 5.38125 -2.7525 4.7625 -2.625 4.125 C-2 2 -2 2 0 0 Z " fill="#94DB95" transform="translate(73,62)"/>
<path d="M0 0 C3.45201639 1.47721422 5.64961936 3.43794001 8.25 6.125 C8.95640625 6.84945312 9.6628125 7.57390625 10.390625 8.3203125 C11.18726563 9.15175781 11.18726563 9.15175781 12 10 C11.67 10.66 11.34 11.32 11 12 C10.16855469 11.13375 10.16855469 11.13375 9.3203125 10.25 C8.59585938 9.5075 7.87140625 8.765 7.125 8 C6.40570313 7.2575 5.68640625 6.515 4.9453125 5.75 C3.18829043 3.77706675 3.18829043 3.77706675 1 4 C0.67 2.68 0.34 1.36 0 0 Z " fill="#7CB27B" transform="translate(186,59)"/>
<path d="M0 0 C0.99 0.33 1.98 0.66 3 1 C0.03 4.96 0.03 4.96 -3 9 C-3.66 8.67 -4.32 8.34 -5 8 C-4.34 6.68 -3.68 5.36 -3 4 C-2.34 4 -1.68 4 -1 4 C-0.67 2.68 -0.34 1.36 0 0 Z " fill="#0D2E2F" transform="translate(171,153)"/>
<path d="M0 0 C0.33 1.32 0.66 2.64 1 4 C-0.375 6 -0.375 6 -2 8 C-2.70514846 10.14733927 -2.70514846 10.14733927 -3 12 C-3.99 11.67 -4.98 11.34 -6 11 C-4.02 7.37 -2.04 3.74 0 0 Z " fill="#59926D" transform="translate(219,163)"/>
<path d="M0 0 C0.66 0.33 1.32 0.66 2 1 C-1.45856848 3.94995547 -4.80021485 6.22675738 -9 8 C-9.66 7.67 -10.32 7.34 -11 7 C-9.21475351 5.80286983 -7.4215972 4.61752721 -5.625 3.4375 C-4.62726563 2.77621094 -3.62953125 2.11492187 -2.6015625 1.43359375 C-1.74304688 0.96050781 -0.88453125 0.48742187 0 0 Z " fill="#07130C" transform="translate(180,196)"/>
<path d="M0 0 C0.66 0.33 1.32 0.66 2 1 C1.67 3.64 1.34 6.28 1 9 C2.65 9 4.3 9 6 9 C3.35261084 10.4606285 2.10551666 11 -1 11 C-0.67 7.37 -0.34 3.74 0 0 Z " fill="#7EC382" transform="translate(135,158)"/>
<path d="M0 0 C2.31 0 4.62 0 7 0 C6.01 0.495 6.01 0.495 5 1 C4.34786708 3.02463255 4.34786708 3.02463255 4 5 C2.68 4.67 1.36 4.34 0 4 C0 2.68 0 1.36 0 0 Z " fill="#7CE279" transform="translate(104,117)"/>
<path d="M0 0 C0.66 0.66 1.32 1.32 2 2 C1.54625 2.7425 1.0925 3.485 0.625 4.25 C-0.68640796 6.46930578 -1.88280803 8.67967822 -3 11 C-4.46534385 7.19010598 -3.55203911 4.6758821 -2 1 C-1.34 0.67 -0.68 0.34 0 0 Z " fill="#1E3B3C" transform="translate(106,74)"/>
<path d="M0 0 C0.66 0.99 1.32 1.98 2 3 C-2.05606165 2.53199289 -5.46588679 2.12046792 -9 0 C-5.85135005 -1.57432497 -3.35512575 -0.71895552 0 0 Z " fill="#92CC97" transform="translate(144,56)"/>
<path d="M0 0 C1.38308641 2.76617283 0.90563946 4.07408791 0 7 C-1.9375 9.3125 -1.9375 9.3125 -4 11 C-4.66 11 -5.32 11 -6 11 C-4.18690997 7.22272911 -2.0926741 3.62730178 0 0 Z " fill="#94D1B3" transform="translate(181,142)"/>
<path d="M0 0 C0.33 0.99 0.66 1.98 1 3 C-0.65 4.65 -2.3 6.3 -4 8 C-4.66 7.34 -5.32 6.68 -6 6 C-5.01 5.67 -4.02 5.34 -3 5 C-2.6278958 3.67696283 -2.29369827 2.34262065 -2 1 C-1.34 0.67 -0.68 0.34 0 0 Z " fill="#0B2827" transform="translate(156,142)"/>
<path d="M0 0 C-0.33 1.65 -0.66 3.3 -1 5 C-1.33 4.01 -1.66 3.02 -2 2 C-6.29 2 -10.58 2 -15 2 C-15 1.67 -15 1.34 -15 1 C-13.25021843 0.83105557 -11.50016388 0.66493691 -9.75 0.5 C-8.77546875 0.4071875 -7.8009375 0.314375 -6.796875 0.21875 C-4.53697847 0.04199832 -2.26679807 0 0 0 Z " fill="#77B572" transform="translate(155,130)"/>
<path d="M0 0 C0 3.63 0 7.26 0 11 C-2.18975773 7.71536341 -2.99806563 4.79303725 -4 1 C-2 0 -2 0 0 0 Z " fill="#A0CA95" transform="translate(115,71)"/>
<path d="M0 0 C-1.75 2 -1.75 2 -4 4 C-5.32 4 -6.64 4 -8 4 C-8 3.01 -8 2.02 -8 1 C-5.29120665 -0.35439668 -2.99066732 -0.06501451 0 0 Z " fill="#5CA85B" transform="translate(184,193)"/>
<path d="M0 0 C0.53625 0.226875 1.0725 0.45375 1.625 0.6875 C-1.7090947 2.87847652 -4.41679141 4.12204163 -8.375 4.6875 C-8.375 4.0275 -8.375 3.3675 -8.375 2.6875 C-2.95961538 -0.38942308 -2.95961538 -0.38942308 0 0 Z " fill="#69B369" transform="translate(151.375,152.3125)"/>
<path d="M0 0 C0.66 0.33 1.32 0.66 2 1 C-0.31 3.97 -2.62 6.94 -5 10 C-5.66 9.01 -6.32 8.02 -7 7 C-4.69 4.69 -2.38 2.38 0 0 Z " fill="#25433E" transform="translate(65,63)"/>
<path d="M0 0 C0.33 0 0.66 0 1 0 C1 1.65 1 3.3 1 5 C1.66 5.33 2.32 5.66 3 6 C2.01 7.485 2.01 7.485 1 9 C0.34 9 -0.32 9 -1 9 C-1.09765625 2.84765625 -1.09765625 2.84765625 -1 1 C-0.67 0.67 -0.34 0.34 0 0 Z " fill="#A1E8AD" transform="translate(161,137)"/>
<path d="M0 0 C-0.33 0.99 -0.66 1.98 -1 3 C-3 3 -5 3 -7 3 C-7.33 2.34 -7.66 1.68 -8 1 C-3.375 -1.125 -3.375 -1.125 0 0 Z " fill="#62AA60" transform="translate(156,173)"/>
<path d="M0 0 C0.99 0.33 1.98 0.66 3 1 C2.34 2.32 1.68 3.64 1 5 C0.01 5 -0.98 5 -2 5 C-1.34 3.35 -0.68 1.7 0 0 Z " fill="#8CD389" transform="translate(67,71)"/>
<path d="M0 0 C0.66 0.33 1.32 0.66 2 1 C1.34 2.32 0.68 3.64 0 5 C-1.65 5 -3.3 5 -5 5 C-3.35 3.35 -1.7 1.7 0 0 Z " fill="#95CFAA" transform="translate(72,59)"/>
<path d="M0 0 C0 0.66 0 1.32 0 2 C-2.57213134 3.61949011 -3.67669159 4.04408751 -6.75 3.625 C-7.4925 3.41875 -8.235 3.2125 -9 3 C-5.73209435 0.82139623 -3.91954654 0 0 0 Z " fill="#253D30" transform="translate(103,33)"/>
<path d="M0 0 C0.66 1.32 1.32 2.64 2 4 C1.34 4.66 0.68 5.32 0 6 C-0.69748583 7.31747324 -1.36959957 8.64914193 -2 10 C-1.85950482 8.52031676 -1.71245174 7.04125484 -1.5625 5.5625 C-1.48128906 4.73878906 -1.40007812 3.91507812 -1.31640625 3.06640625 C-1 1 -1 1 0 0 Z " fill="#8DD281" transform="translate(175,101)"/>
<path d="M0 0 C0.33 0.99 0.66 1.98 1 3 C-0.9375 6.1875 -0.9375 6.1875 -3 9 C-3.33 8.01 -3.66 7.02 -4 6 C-2.84338843 3.79192337 -1.77322566 1.77322566 0 0 Z " fill="#97E29C" transform="translate(56,85)"/>
<path d="M0 0 C-0.99 0.33 -1.98 0.66 -3 1 C-4.20882096 3.00016466 -4.20882096 3.00016466 -5 5 C-5.33 3.35 -5.66 1.7 -6 0 C-3.50907189 -1.24546405 -2.58919267 -0.7767578 0 0 Z " fill="#9BE19D" transform="translate(62,80)"/>
<path d="M0 0 C0.99 0 1.98 0 3 0 C2.6875 1.875 2.6875 1.875 2 4 C1.01 4.66 0.02 5.32 -1 6 C-1.33 5.34 -1.66 4.68 -2 4 C-1.0625 1.875 -1.0625 1.875 0 0 Z " fill="#99DB95" transform="translate(102,64)"/>
<path d="M0 0 C0.66 0 1.32 0 2 0 C0.84826645 2.46800047 -0.04783565 4.04783565 -2 6 C-2.99 6 -3.98 6 -5 6 C-4.67 5.01 -4.34 4.02 -4 3 C-3.01 3 -2.02 3 -1 3 C-0.67 2.01 -0.34 1.02 0 0 Z " fill="#84B681" transform="translate(64,52)"/>
<path d="M0 0 C0.66 0.33 1.32 0.66 2 1 C0.87926138 1.83905565 -0.24674547 2.67107831 -1.375 3.5 C-2.00148438 3.9640625 -2.62796875 4.428125 -3.2734375 4.90625 C-5 6 -5 6 -7 6 C-6 3 -6 3 -3.0625 1.25 C-2.051875 0.8375 -1.04125 0.425 0 0 Z " fill="#1C3329" transform="translate(88,38)"/>
<path d="M0 0 C0.33 0 0.66 0 1 0 C1 2.64 1 5.28 1 8 C0.01 8 -0.98 8 -2 8 C-1.34 5.36 -0.68 2.72 0 0 Z " fill="#6DB072" transform="translate(166,125)"/>
<path d="M0 0 C0.66 0.33 1.32 0.66 2 1 C1.01 3.97 0.02 6.94 -1 10 C-1.33 10 -1.66 10 -2 10 C-2.1953125 3.9453125 -2.1953125 3.9453125 -2 2 C-1.34 1.34 -0.68 0.68 0 0 Z " fill="#80D17B" transform="translate(170,99)"/>
<path d="M0 0 C0 0.66 0 1.32 0 2 C-0.99 2.495 -0.99 2.495 -2 3 C-3.13350534 5.01669827 -3.13350534 5.01669827 -4 7 C-4.66 7 -5.32 7 -6 7 C-5.37162381 3.35541809 -4.14650034 0 0 0 Z " fill="#B7E5CA" transform="translate(112,73)"/>
</svg>
